{"title":"Jupiter.Ascending.2015.3D.1080p.BluRay.x264-SPRiNTER[rarbg]","uid":11889430,"size":9385191609,"categoryP":"video","categoryS":"3d","magnet":"?xt=urn:btih:15b9560ca42b0097097e5ef8c83ede46bdd06fdc&amp;dn=Jupiter.Ascending.2015.3D.1080p.BluRay.x264-SPRiNTER%5Brarbg%5D&amp;tr=udp%3A%2F%2Ftracker.openbittorrent.com%3A80&amp;tr=udp%3A%2F%2Fopen.demonii.com%3A1337&amp;tr=udp%3A%2F%2Ftracker.coppersurfer.tk%3A6969&amp;tr=udp%3A%2F%2Fexodus.desync.com%3A6969","seeders":27,"leechers":5,"uploader":"vickey1992","files":3,"time":1430938925,"description":"Video           X264 9170Kbps @ HSBS 3D\nAudio           AC-3 640Kbps 6ch\nResolution      1920x800\nSize            8950MB (9385186689 Bytes)\nFrame Rate      23.976\nRun Time        2h 7mn\nLanguage        English\n3D Subtitles\n\n\nVideo\nID                                       : 1\nFormat                                   : AVC\nFormat/Info                              : Advanced Video Codec\nFormat profile                           : &lt;a class=&quot;__cf_email__&quot; href=&quot;/cdn-cgi/l/email-protection&quot; data-cfemail=&quot;a4eccdc3cce4e8908a95&quot;&gt;[email&amp;#160;protected]&lt;/a&gt;&lt;script cf-hash='f9e31' type=&quot;text/javascript&quot;&gt;\n/* &lt;![CDATA[ */!function(){try{var t=&quot;currentScript&quot;in document?document.currentScript:function(){for(var t=document.getElementsByTagName(&quot;script&quot;),e=t.length;e--;)if(t[e].getAttribute(&quot;cf-hash&quot;))return t[e]}();if(t&amp;&amp;t.previousSibling){var e,r,n,i,c=t.previousSibling,a=c.getAttribute(&quot;data-cfemail&quot;);if(a){for(e=&quot;&quot;,r=parseInt(a.substr(0,2),16),n=2;a.length-n;n+=2)i=parseInt(a.substr(n,2),16)^r,e+=String.fromCharCode(i);e=document.createTextNode(e),c.parentNode.replaceChild(e,c)}}}catch(u){}}();/* ]]&gt; */&lt;/script&gt;\nFormat settings, CABAC                   : Yes\nFormat settings, ReFrames                : 5 frames\nCodec ID                                 : V_MPEG4/ISO/AVC\nDuration                                 : 2h 7mn\nBit rate                                 : 9 170 Kbps\nWidth                                    : 1 920 pixels\nHeight                                   : 800 pixels\nDisplay aspect ratio                     : 2.40:1\nFrame rate mode                          : Constant\nFrame rate                               : 23.976 fps\nColor space                              : YUV\nChroma subsampling                       : 4:2:0\nBit depth                                : 8 bits\nScan type                                : Progressive\nBits/(Pixel*Frame)                       : 0.249\nStream size                              : 8.00 GiB (91%)\nWriting library                          : x264 core 144 r2525 40bb568\nEncoding settings                        : cabac=1 / ref=5 / deblock=1:0:0 / analyse=0x3:0x133 / me=umh / subme=7 / psy=1 / psy_rd=1.00:0.00 / mixed_ref=1 / me_range=16 / chroma_me=1 / trellis=1 / 8x8dct=1 / cqm=0 / deadzone=21,11 / fast_pskip=0 / chroma_qp_offset=-2 / threads=48 / lookahead_threads=6 / sliced_threads=0 / nr=0 / decimate=1 / interlaced=0 / bluray_compat=0 / constrained_intra=0 / bframes=3 / b_pyramid=2 / b_adapt=1 / b_bias=0 / direct=1 / weightb=1 / open_gop=0 / weightp=2 / keyint=250 / keyint_min=23 / scenecut=40 / intra_refresh=0 / rc_lookahead=40 / rc=2pass / mbtree=1 / bitrate=9170 / ratetol=1.0 / qcomp=0.60 / qpmin=0 / qpmax=69 / qpstep=4 / cplxblur=20.0 / qblur=0.5 / ip_ratio=1.40 / aq=1:1.00\nLanguage                                 : English\nDefault                                  : Yes\nForced                                   : No\n\nAudio\nID                                       : 2\nFormat                                   : AC-3\nFormat/Info                              : Audio Coding 3\nMode extension                           : CM (complete main)\nFormat settings, Endianness              : Big\nCodec ID                                 : A_AC3\nDuration                                 : 2h 7mn\nBit rate mode                            : Constant\nBit rate                                 : 640 Kbps\nChannel(s)                               : 6 channels\nChannel positions                        : Front: L C R, Side: L R, LFE\nSampling rate                            : 48.0 KHz\nBit depth                                : 16 bits\nCompression mode                         : Lossy\nStream size                              : 584 MiB (7%)\nLanguage                                 : English\nDefault                                  : Yes\nForced                                   : No\n\nMenu\n00:00:00.000                             : en:00:00:00.000\n00:08:45.024                             : en:00:08:45.024\n00:19:31.170                             : en:00:19:31.170\n00:31:32.974                             : en:00:31:32.974\n00:41:42.542                             : en:00:41:42.542\n00:49:35.639                             : en:00:49:35.639\n00:58:29.631                             : en:00:58:29.631\n01:09:20.031                             : en:01:09:20.031\n01:19:07.201                             : en:01:19:07.201\n01:29:09.427                             : en:01:29:09.427\n01:36:08.513                             : en:01:36:08.513\n01:43:26.575                             : en:01:43:26.575\n01:52:58.772                             : en:01:52:58.772\n01:57:59.489                             : en:01:57:59.489","torrent":{"xt":"urn:btih:15b9560ca42b0097097e5ef8c83ede46bdd06fdc","amp;dn":"Jupiter.Ascending.2015.3D.1080p.BluRay.x264-SPRiNTER%5Brarbg%5D","amp;tr":["udp%3A%2F%2Ftracker.openbittorrent.com%3A80","udp%3A%2F%2Fopen.demonii.com%3A1337","udp%3A%2F%2Ftracker.coppersurfer.tk%3A6969","udp%3A%2F%2Fexodus.desync.com%3A6969"],"infoHash":"15b9560ca42b0097097e5ef8c83ede46bdd06fdc","infoHashBuffer":{"type":"Buffer","data":[21,185,86,12,164,43,0,151,9,126,94,248,200,62,222,70,189,208,111,220]},"announce":[],"urlList":[]}}